<?xml version="1.0" encoding="UTF-8"?><svg xmlns="http://www.w3.org/2000/svg" xmlns:xlink="http://www.w3.org/1999/xlink" height="2057.6" preserveAspectRatio="xMidYMid meet" version="1.0" viewBox="218.1 199.4 2012.3 2057.6" width="2012.3" zoomAndPan="magnify"><defs><clipPath id="a"><path d="M 1023 1006 L 1110 1006 L 1110 1361 L 1023 1361 Z M 1023 1006"/></clipPath><clipPath id="b"><path d="M 1065.5 1360.929688 C 1065.269531 1279.628906 1053.289062 1206.640625 1040.648438 1129.328125 C 1034.359375 1090.960938 1028 1052.121094 1023.089844 1011.78125 L 1066.710938 1006.398438 C 1071.589844 1046.160156 1077.851562 1084.390625 1084.050781 1122.230469 C 1096.398438 1197.828125 1109.21875 1275.960938 1109.488281 1360.789062 Z M 1065.5 1360.929688"/></clipPath><clipPath id="c"><path d="M 1065.5 1360.929688 C 1065.269531 1279.628906 1053.289062 1206.640625 1040.648438 1129.328125 C 1034.359375 1090.960938 1028 1052.121094 1023.089844 1011.78125 L 1066.710938 1006.398438 C 1071.589844 1046.160156 1077.851562 1084.390625 1084.050781 1122.230469 C 1096.398438 1197.828125 1109.21875 1275.960938 1109.488281 1360.789062 L 1065.5 1360.929688"/></clipPath><clipPath id="e"><path d="M 1051 660 L 1978 660 L 1978 2048 L 1051 2048 Z M 1051 660"/></clipPath><clipPath id="f"><path d="M 1977.199219 660.738281 C 1719.800781 741.199219 1054.578125 722.25 1051.53125 1487.859375 L 1051.46875 2047.820312 L 1109.511719 2047.820312 L 1109.511719 1490.96875 C 1985.828125 1458.96875 1920.410156 717.558594 1977.199219 660.738281 Z M 1977.199219 660.738281"/></clipPath><clipPath id="g"><path d="M 1977.207031 660.738281 C 1719.804688 741.199219 1054.582031 722.25 1051.53125 1487.855469 L 1051.472656 2047.816406 L 1109.511719 2047.816406 L 1109.511719 1490.964844 C 1985.832031 1458.96875 1920.414062 717.554688 1977.207031 660.738281"/></clipPath><clipPath id="i"><path d="M 394 863 L 993 863 L 993 1492 L 394 1492 Z M 394 863"/></clipPath><clipPath id="j"><path d="M 394.390625 863.671875 C 522.28125 885.988281 895.503906 886.160156 992.210938 1490.988281 C 576.265625 1519.609375 394.390625 863.671875 394.390625 863.671875 Z M 394.390625 863.671875"/></clipPath><clipPath id="k"><path d="M 394.390625 863.671875 C 522.28125 885.988281 895.503906 886.160156 992.210938 1490.988281 C 576.265625 1519.609375 394.390625 863.671875 394.390625 863.671875"/></clipPath><clipPath id="m"><path d="M 669 199 L 1128 199 L 1128 1027 L 669 1027 Z M 669 199"/></clipPath><clipPath id="n"><path d="M 699.84375 199.441406 C 699.84375 199.441406 523.140625 843.460938 1024.738281 1019.03125 C 1028.960938 1020.5 1032.859375 1022.230469 1037.199219 1023.640625 C 1036.96875 1022.78125 1036.730469 1021.671875 1036.539062 1020.75 C 1036.769531 1021.160156 1036.949219 1021.859375 1037.199219 1022.121094 C 1044.578125 1030.371094 1051.210938 1024.769531 1055.191406 1017.488281 C 1055.191406 1018.171875 1055.191406 1018.828125 1055.171875 1019.441406 C 1304.351562 443.019531 844.238281 276.441406 699.84375 199.441406 Z M 699.84375 199.441406"/></clipPath><clipPath id="o"><path d="M 699.84375 199.449219 C 699.84375 199.449219 523.140625 843.460938 1024.738281 1019.035156 C 1028.957031 1020.5 1032.855469 1022.242188 1037.195312 1023.652344 C 1036.964844 1022.78125 1036.726562 1021.675781 1036.539062 1020.75 C 1036.765625 1021.164062 1036.945312 1021.867188 1037.195312 1022.128906 C 1044.578125 1030.367188 1051.207031 1024.769531 1055.1875 1017.5 C 1055.1875 1018.175781 1055.1875 1018.839844 1055.167969 1019.449219 C 1304.34375 443.027344 844.234375 276.453125 699.84375 199.449219"/></clipPath><clipPath id="q"><path d="M 947 1445 L 1095 1445 L 1095 1670 L 947 1670 Z M 947 1445"/></clipPath><clipPath id="r"><path d="M 1094.839844 1669.789062 L 1050.839844 1668.398438 C 1052 1631.238281 1032.941406 1592.441406 1018.488281 1566.449219 C 1009.371094 1550.121094 998.792969 1533.691406 986.910156 1517.558594 C 980.777344 1509.179688 973.824219 1501.921875 966.871094 1494.589844 C 960.246094 1487.609375 953.660156 1480.640625 947.589844 1473.050781 L 981.941406 1445.601562 C 987.261719 1452.25 993.027344 1458.289062 998.792969 1464.351562 C 1006.96875 1472.988281 1015.070312 1481.648438 1022.328125 1491.519531 C 1035.320312 1509.121094 1046.910156 1527.140625 1056.890625 1545.058594 C 1073.859375 1575.570312 1096.359375 1621.691406 1094.839844 1669.789062 Z M 1094.839844 1669.789062"/></clipPath><clipPath id="s"><path d="M 1094.839844 1669.789062 L 1050.839844 1668.398438 C 1052 1631.238281 1032.941406 1592.441406 1018.488281 1566.449219 C 1009.371094 1550.121094 998.792969 1533.691406 986.910156 1517.558594 C 980.777344 1509.179688 973.824219 1501.921875 966.871094 1494.589844 C 960.246094 1487.609375 953.660156 1480.640625 947.589844 1473.050781 L 981.941406 1445.601562 C 987.261719 1452.25 993.027344 1458.289062 998.792969 1464.351562 C 1006.96875 1472.988281 1015.070312 1481.648438 1022.328125 1491.519531 C 1035.320312 1509.121094 1046.910156 1527.140625 1056.890625 1545.058594 C 1073.859375 1575.570312 1096.359375 1621.691406 1094.839844 1669.789062"/></clipPath><linearGradient gradientTransform="translate(1023.09 1183.66) scale(86.3994)" gradientUnits="userSpaceOnUse" id="d" x1="0" x2="1" xlink:actuate="onLoad" xlink:show="other" xlink:type="simple" xmlns:xlink="http://www.w3.org/1999/xlink" y1="0" y2="0"><stop offset="0" stop-color="#3e7930"/><stop offset=".016" stop-color="#3f7a30"/><stop offset=".031" stop-color="#3f7a30"/><stop offset=".063" stop-color="#3f7a2f"/><stop offset=".078" stop-color="#407b2f"/><stop offset=".094" stop-color="#407b30"/><stop offset=".125" stop-color="#407b30"/><stop offset=".156" stop-color="#417c30"/><stop offset=".172" stop-color="#427c30"/><stop offset=".188" stop-color="#427d30"/><stop offset=".203" stop-color="#427d30"/><stop offset=".219" stop-color="#437d30"/><stop offset=".25" stop-color="#437d30"/><stop offset=".266" stop-color="#447e30"/><stop offset=".281" stop-color="#447e30"/><stop offset=".313" stop-color="#447e30"/><stop offset=".328" stop-color="#457f30"/><stop offset=".344" stop-color="#457f30"/><stop offset=".359" stop-color="#457f30"/><stop offset=".375" stop-color="#458030"/><stop offset=".406" stop-color="#468030"/><stop offset=".422" stop-color="#468030"/><stop offset=".438" stop-color="#478130"/><stop offset=".469" stop-color="#478130"/><stop offset=".484" stop-color="#488230"/><stop offset=".5" stop-color="#488230"/><stop offset=".516" stop-color="#488230"/><stop offset=".531" stop-color="#498330"/><stop offset=".563" stop-color="#498330"/><stop offset=".578" stop-color="#498330"/><stop offset=".594" stop-color="#4a8430"/><stop offset=".625" stop-color="#4a8430"/><stop offset=".641" stop-color="#4a8430"/><stop offset=".656" stop-color="#4a8530"/><stop offset=".688" stop-color="#4b8530"/><stop offset=".703" stop-color="#4c8630"/><stop offset=".719" stop-color="#4c8630"/><stop offset=".734" stop-color="#4c8630"/><stop offset=".75" stop-color="#4c8630"/><stop offset=".781" stop-color="#4d8730"/><stop offset=".797" stop-color="#4e8730"/><stop offset=".813" stop-color="#4e8830"/><stop offset=".828" stop-color="#4f8830"/><stop offset=".844" stop-color="#4e8830"/><stop offset=".859" stop-color="#4f8830"/><stop offset=".875" stop-color="#4f8930"/><stop offset=".891" stop-color="#508930"/><stop offset=".906" stop-color="#508930"/><stop offset=".922" stop-color="#508a30"/><stop offset=".938" stop-color="#508a30"/><stop offset=".953" stop-color="#518a30"/><stop offset=".969" stop-color="#518a30"/><stop offset=".984" stop-color="#518b30"/><stop offset="1" stop-color="#528b30"/></linearGradient><linearGradient gradientTransform="scale(912.004) rotate(60 -.174 1.693)" gradientUnits="userSpaceOnUse" id="h" x1="-.349" x2="1.48" xlink:actuate="onLoad" xlink:show="other" xlink:type="simple" xmlns:xlink="http://www.w3.org/1999/xlink" y1="0" y2="0"><stop offset="0" stop-color="#3e7930"/><stop offset=".125" stop-color="#3e7930"/><stop offset=".188" stop-color="#3e7930"/><stop offset=".195" stop-color="#3e7930"/><stop offset=".203" stop-color="#3f7a30"/><stop offset=".219" stop-color="#3f7a30"/><stop offset=".227" stop-color="#3f7a2f"/><stop offset=".234" stop-color="#407b30"/><stop offset=".25" stop-color="#407b30"/><stop offset=".258" stop-color="#407b30"/><stop offset=".266" stop-color="#417c30"/><stop offset=".273" stop-color="#417c30"/><stop offset=".281" stop-color="#427c30"/><stop offset=".297" stop-color="#427d30"/><stop offset=".305" stop-color="#437d30"/><stop offset=".313" stop-color="#437d30"/><stop offset=".328" stop-color="#437d30"/><stop offset=".336" stop-color="#447e2f"/><stop offset=".344" stop-color="#447e30"/><stop offset=".359" stop-color="#447e30"/><stop offset=".367" stop-color="#457f30"/><stop offset=".375" stop-color="#457f30"/><stop offset=".383" stop-color="#457f30"/><stop offset=".391" stop-color="#457f30"/><stop offset=".406" stop-color="#468030"/><stop offset=".422" stop-color="#468130"/><stop offset=".43" stop-color="#478130"/><stop offset=".438" stop-color="#478130"/><stop offset=".445" stop-color="#478130"/><stop offset=".453" stop-color="#488230"/><stop offset=".469" stop-color="#488230"/><stop offset=".484" stop-color="#498330"/><stop offset=".5" stop-color="#498330"/><stop offset=".508" stop-color="#498330"/><stop offset=".516" stop-color="#4a8430"/><stop offset=".531" stop-color="#4a8430"/><stop offset=".539" stop-color="#4a8430"/><stop offset=".547" stop-color="#4a8530"/><stop offset=".563" stop-color="#4b8530"/><stop offset=".57" stop-color="#4b8530"/><stop offset=".578" stop-color="#4c8630"/><stop offset=".594" stop-color="#4c8630"/><stop offset=".602" stop-color="#4d8630"/><stop offset=".609" stop-color="#4d8730"/><stop offset=".625" stop-color="#4d8730"/><stop offset=".641" stop-color="#4e8730"/><stop offset=".648" stop-color="#4f8830"/><stop offset=".656" stop-color="#4e8830"/><stop offset=".664" stop-color="#4f8930"/><stop offset=".672" stop-color="#4f8930"/><stop offset=".68" stop-color="#508930"/><stop offset=".688" stop-color="#508930"/><stop offset=".695" stop-color="#508a30"/><stop offset=".703" stop-color="#508a30"/><stop offset=".719" stop-color="#518a30"/><stop offset=".727" stop-color="#518b30"/><stop offset=".734" stop-color="#518b30"/><stop offset=".75" stop-color="#528b30"/><stop offset="1" stop-color="#528b30"/></linearGradient><linearGradient gradientTransform="rotate(-90 1092.6 399.3) scale(628.229)" gradientUnits="userSpaceOnUse" id="l" x1="-.044" x2="1" xlink:actuate="onLoad" xlink:show="other" xlink:type="simple" xmlns:xlink="http://www.w3.org/1999/xlink" y1="0" y2="0"><stop offset="0" stop-color="#3e7930"/><stop offset=".031" stop-color="#3e7930"/><stop offset=".047" stop-color="#3e7930"/><stop offset=".063" stop-color="#3f7a30"/><stop offset=".094" stop-color="#3f7a30"/><stop offset=".109" stop-color="#407a2f"/><stop offset=".125" stop-color="#407b30"/><stop offset=".156" stop-color="#407b30"/><stop offset=".172" stop-color="#417c30"/><stop offset=".188" stop-color="#417c30"/><stop offset=".203" stop-color="#427c30"/><stop offset=".219" stop-color="#427d30"/><stop offset=".234" stop-color="#427d30"/><stop offset=".25" stop-color="#437d30"/><stop offset=".281" stop-color="#437d30"/><stop offset=".297" stop-color="#447e30"/><stop offset=".313" stop-color="#447e30"/><stop offset=".344" stop-color="#447e30"/><stop offset=".359" stop-color="#457f30"/><stop offset=".375" stop-color="#457f30"/><stop offset=".391" stop-color="#457f30"/><stop offset=".406" stop-color="#468030"/><stop offset=".438" stop-color="#468030"/><stop offset=".445" stop-color="#468030"/><stop offset=".453" stop-color="#478130"/><stop offset=".469" stop-color="#478130"/><stop offset=".484" stop-color="#478130"/><stop offset=".5" stop-color="#488230"/><stop offset=".531" stop-color="#488230"/><stop offset=".547" stop-color="#498330"/><stop offset=".563" stop-color="#498330"/><stop offset=".594" stop-color="#498330"/><stop offset=".609" stop-color="#498430"/><stop offset=".625" stop-color="#4a8430"/><stop offset=".641" stop-color="#4a8430"/><stop offset=".656" stop-color="#4a8430"/><stop offset=".672" stop-color="#4b8530"/><stop offset=".688" stop-color="#4b8530"/><stop offset=".703" stop-color="#4b8530"/><stop offset=".719" stop-color="#4c8630"/><stop offset=".75" stop-color="#4c8630"/><stop offset=".766" stop-color="#4d8730"/><stop offset=".781" stop-color="#4d8730"/><stop offset=".813" stop-color="#4e8730"/><stop offset=".844" stop-color="#4e8830"/><stop offset=".875" stop-color="#4f8930"/><stop offset=".906" stop-color="#4f8930"/><stop offset=".938" stop-color="#508a30"/><stop offset=".953" stop-color="#518a30"/><stop offset=".969" stop-color="#518a30"/><stop offset=".984" stop-color="#518b30"/><stop offset=".992" stop-color="#518b30"/><stop offset="1" stop-color="#528b30"/></linearGradient><linearGradient gradientTransform="scale(564.536) rotate(-60 1.97 -.36)" gradientUnits="userSpaceOnUse" id="p" x1="-.443" x2="1.523" xlink:actuate="onLoad" xlink:show="other" xlink:type="simple" xmlns:xlink="http://www.w3.org/1999/xlink" y1="0" y2="0"><stop offset="0" stop-color="#3e7930"/><stop offset=".125" stop-color="#3e7930"/><stop offset=".188" stop-color="#3e7930"/><stop offset=".219" stop-color="#3e7930"/><stop offset=".227" stop-color="#3e7930"/><stop offset=".234" stop-color="#3f7a30"/><stop offset=".25" stop-color="#3f7a30"/><stop offset=".266" stop-color="#407b30"/><stop offset=".281" stop-color="#407b30"/><stop offset=".289" stop-color="#407b30"/><stop offset=".297" stop-color="#417c30"/><stop offset=".305" stop-color="#417c30"/><stop offset=".313" stop-color="#427c30"/><stop offset=".328" stop-color="#427d30"/><stop offset=".336" stop-color="#437d30"/><stop offset=".344" stop-color="#437d30"/><stop offset=".352" stop-color="#437d30"/><stop offset=".359" stop-color="#447e30"/><stop offset=".367" stop-color="#447e30"/><stop offset=".375" stop-color="#447e30"/><stop offset=".383" stop-color="#447f30"/><stop offset=".391" stop-color="#457f30"/><stop offset=".406" stop-color="#457f30"/><stop offset=".414" stop-color="#458030"/><stop offset=".422" stop-color="#468030"/><stop offset=".438" stop-color="#468030"/><stop offset=".445" stop-color="#478130"/><stop offset=".453" stop-color="#478130"/><stop offset=".461" stop-color="#478130"/><stop offset=".469" stop-color="#488230"/><stop offset=".484" stop-color="#488230"/><stop offset=".492" stop-color="#498330"/><stop offset=".5" stop-color="#498330"/><stop offset=".516" stop-color="#498330"/><stop offset=".523" stop-color="#498430"/><stop offset=".531" stop-color="#4a8430"/><stop offset=".547" stop-color="#4a8430"/><stop offset=".555" stop-color="#4a8530"/><stop offset=".563" stop-color="#4b8530"/><stop offset=".578" stop-color="#4b8530"/><stop offset=".586" stop-color="#4c8630"/><stop offset=".594" stop-color="#4c8630"/><stop offset=".602" stop-color="#4c8630"/><stop offset=".609" stop-color="#4d8730"/><stop offset=".625" stop-color="#4d8730"/><stop offset=".633" stop-color="#4e8730"/><stop offset=".641" stop-color="#4e8830"/><stop offset=".648" stop-color="#4f8830"/><stop offset=".656" stop-color="#4e8830"/><stop offset=".664" stop-color="#4f8830"/><stop offset=".672" stop-color="#4f8930"/><stop offset=".68" stop-color="#508930"/><stop offset=".688" stop-color="#508930"/><stop offset=".695" stop-color="#508a30"/><stop offset=".703" stop-color="#508a30"/><stop offset=".711" stop-color="#518a30"/><stop offset=".719" stop-color="#518a30"/><stop offset=".727" stop-color="#518b30"/><stop offset=".734" stop-color="#528b30"/><stop offset=".75" stop-color="#528b30"/><stop offset="1" stop-color="#528b30"/></linearGradient><linearGradient gradientTransform="translate(947.588 1557.69) scale(147.328)" gradientUnits="userSpaceOnUse" id="t" x1="0" x2="1.01" xlink:actuate="onLoad" xlink:show="other" xlink:type="simple" xmlns:xlink="http://www.w3.org/1999/xlink" y1="0" y2="0"><stop offset="0" stop-color="#3e7930"/><stop offset=".016" stop-color="#3f7a30"/><stop offset=".031" stop-color="#3f7a30"/><stop offset=".063" stop-color="#3f7a2f"/><stop offset=".078" stop-color="#407b2f"/><stop offset=".094" stop-color="#407b30"/><stop offset=".125" stop-color="#407b30"/><stop offset=".156" stop-color="#417c30"/><stop offset=".172" stop-color="#427c30"/><stop offset=".188" stop-color="#427d30"/><stop offset=".203" stop-color="#427d30"/><stop offset=".219" stop-color="#437d30"/><stop offset=".25" stop-color="#437d30"/><stop offset=".266" stop-color="#447e2f"/><stop offset=".281" stop-color="#447e30"/><stop offset=".313" stop-color="#447f30"/><stop offset=".328" stop-color="#457f30"/><stop offset=".344" stop-color="#457f30"/><stop offset=".359" stop-color="#457f30"/><stop offset=".375" stop-color="#458030"/><stop offset=".406" stop-color="#468030"/><stop offset=".422" stop-color="#478130"/><stop offset=".438" stop-color="#478130"/><stop offset=".469" stop-color="#478130"/><stop offset=".484" stop-color="#488230"/><stop offset=".5" stop-color="#488230"/><stop offset=".516" stop-color="#488230"/><stop offset=".531" stop-color="#498330"/><stop offset=".563" stop-color="#498330"/><stop offset=".578" stop-color="#498430"/><stop offset=".594" stop-color="#4a8430"/><stop offset=".625" stop-color="#4a8430"/><stop offset=".641" stop-color="#4a8530"/><stop offset=".656" stop-color="#4b8530"/><stop offset=".688" stop-color="#4b8530"/><stop offset=".703" stop-color="#4c8630"/><stop offset=".719" stop-color="#4c8630"/><stop offset=".734" stop-color="#4c8630"/><stop offset=".75" stop-color="#4d8730"/><stop offset=".781" stop-color="#4d8730"/><stop offset=".797" stop-color="#4e8730"/><stop offset=".813" stop-color="#4e8830"/><stop offset=".828" stop-color="#4f8830"/><stop offset=".844" stop-color="#4e8830"/><stop offset=".859" stop-color="#4f8930"/><stop offset=".875" stop-color="#4f8930"/><stop offset=".891" stop-color="#508930"/><stop offset=".906" stop-color="#4f8930"/><stop offset=".922" stop-color="#508a30"/><stop offset=".938" stop-color="#508a30"/><stop offset=".953" stop-color="#518a30"/><stop offset=".969" stop-color="#518b30"/><stop offset=".984" stop-color="#518b30"/><stop offset="1" stop-color="#528b30"/></linearGradient></defs><g><g id="change1_1"><path d="M 377.191406 2252.101562 C 377.191406 1706.941406 899.832031 1539.203125 1080.425781 2029.511719 C 1296.578125 1726.28125 1480.480469 2029.511719 1480.480469 2029.511719 C 1480.480469 1894.113281 2025.550781 1532.765625 2025.550781 2252.101562 L 377.191406 2252.101562" fill="#593d29"/></g><g id="change2_1"><path d="M 454.53125 2141.769531 C 454.53125 2141.769531 453.40625 2132.78125 451.527344 2117.171875 C 450.359375 2109.410156 450.402344 2099.78125 451.035156 2088.460938 C 451.035156 2077.011719 452.507812 2064.328125 455.203125 2050.75 C 456.882812 2036.839844 461.8125 2022.621094 466.390625 2007.28125 C 472.34375 1992.609375 477.558594 1976.191406 486.515625 1961.28125 C 494.488281 1945.761719 503.835938 1930.371094 514.429688 1915.449219 C 519.664062 1908.011719 525.613281 1901.058594 531.214844 1893.730469 C 534.632812 1889.730469 535.714844 1887.449219 541.011719 1881.980469 L 550.355469 1872.46875 C 561.808594 1859.988281 579.273438 1848.230469 594.546875 1836.738281 C 610.644531 1827.351562 626.164062 1817.851562 642.585938 1811.511719 C 658.738281 1804.539062 674.609375 1798.601562 690.558594 1795.480469 C 698.433594 1793.710938 705.9375 1791.570312 713.378906 1790.261719 C 720.96875 1789.71875 728.328125 1789.210938 735.382812 1788.761719 C 749.3125 1786.839844 762.296875 1788.5 773.644531 1790.519531 C 784.972656 1791.730469 794.523438 1793.789062 801.925781 1797.808594 C 816.957031 1804.378906 824.625 1808.300781 824.625 1808.300781 C 824.625 1808.300781 815.6875 1807.640625 800.105469 1806.351562 C 792.765625 1804.789062 783.480469 1805.980469 773.070312 1807.351562 C 762.746094 1808.199219 751.4375 1809.648438 739.125 1813.679688 C 726.796875 1816.601562 713.890625 1820.769531 700.519531 1826.789062 C 686.878906 1831.410156 673.523438 1839.210938 659.515625 1846.289062 C 645.304688 1852.859375 632.605469 1863.710938 618.472656 1871.789062 C 606.367188 1881.871094 593.832031 1889.550781 581.398438 1903.578125 L 571.808594 1912.78125 C 570.707031 1913.5 566.816406 1918.601562 564.445312 1921.28125 C 559.128906 1927.851562 553.425781 1934.160156 548.414062 1940.851562 C 538.660156 1954.378906 528.085938 1967.109375 519.886719 1980.679688 C 502.503906 2007.28125 488.765625 2033.738281 479.335938 2057.699219 C 469.460938 2081.710938 463.796875 2101.988281 460.195312 2117.648438 C 456.617188 2132.949219 454.53125 2141.769531 454.53125 2141.769531" fill="#f2f2f0"/></g><g id="change2_2"><path d="M 1553.652344 2131.128906 C 1553.652344 2131.128906 1550.910156 2124.449219 1546.867188 2112.730469 C 1544.339844 2107.070312 1543.617188 2099.308594 1542.582031 2090.058594 C 1540.957031 2080.648438 1541.777344 2070.539062 1542.851562 2059.308594 C 1543.449219 2047.96875 1547.027344 2036.308594 1550.445312 2023.789062 C 1555.164062 2011.980469 1559.371094 1998.769531 1566.867188 1986.949219 C 1573.421875 1974.480469 1581.605469 1962.609375 1590.621094 1951.007812 C 1599.648438 1940.296875 1611.070312 1927.847656 1621.089844 1919.019531 C 1630.5 1909.71875 1644.28125 1900.679688 1656.21875 1891.808594 C 1668.949219 1884.1875 1681.566406 1876.96875 1694.65625 1871.96875 C 1720.25 1860.667969 1746.230469 1856.167969 1767.941406 1854.46875 C 1778.730469 1852.796875 1788.839844 1854.148438 1797.554688 1854.117188 C 1806.300781 1854.046875 1813.894531 1855.417969 1820.136719 1856.410156 C 1832.527344 1858.390625 1839.453125 1859.9375 1839.453125 1859.9375 C 1839.453125 1859.9375 1832.582031 1861.828125 1820.550781 1865.160156 C 1814.652344 1866.527344 1807.472656 1868.257812 1799.4375 1870.828125 C 1791.503906 1873.609375 1782.320312 1875.359375 1772.929688 1879.230469 C 1763.507812 1882.878906 1753.167969 1886.019531 1742.980469 1890.988281 C 1732.507812 1895.230469 1722.160156 1900.949219 1711.527344 1906.777344 C 1700.648438 1912.019531 1690.976562 1920.527344 1680.257812 1926.828125 C 1670.664062 1934.808594 1660.960938 1940.949219 1650.769531 1951.4375 C 1639.644531 1960.75 1632.09375 1968.597656 1622.953125 1978.488281 C 1615.121094 1988.339844 1606.070312 1997.269531 1599.546875 2007.480469 C 1592.179688 2017.160156 1586.511719 2027.207031 1580.488281 2036.738281 C 1576.164062 2046.679688 1570.171875 2055.878906 1567.316406 2065.128906 C 1564.226562 2074.328125 1560.445312 2082.898438 1559.316406 2090.539062 C 1557.847656 2098.1875 1555.265625 2105.25 1555.480469 2111.609375 C 1554.578125 2123.957031 1553.652344 2131.128906 1553.652344 2131.128906" fill="#f2f2f0"/></g><g id="change3_1"><path d="M 777.757812 2130.96875 C 711.988281 2160.011719 595.773438 2154.808594 584.734375 2063.839844 C 576.371094 1995.449219 646.019531 1921.75 703.644531 1896.191406 C 775.671875 1864.171875 877.097656 1848.640625 902.414062 1943.890625 C 924.886719 2028.5 846.730469 2100.480469 777.757812 2130.96875" fill="#674c2a"/></g><g id="change3_2"><path d="M 1371.121094 2033.960938 C 1369.519531 2039.148438 1367.148438 2044.609375 1364 2050.371094 C 1322.828125 2125.460938 1122.699219 2130.96875 1173.621094 2016.890625 C 1211.488281 1931.96875 1399.269531 1943.78125 1371.121094 2033.960938" fill="#674c2a"/></g><g id="change3_3"><path d="M 1844.390625 2134.167969 C 1785.265625 2165.667969 1698.710938 2169.050781 1671.035156 2117.117188 C 1647.636719 2073.148438 1665.949219 2010.6875 1698.664062 1977.207031 C 1732.304688 1942.777344 1784.550781 1926.136719 1829.273438 1949.085938 C 1864.507812 1967.105469 1909.886719 2028.546875 1901.320312 2070.109375 C 1896.015625 2096.148438 1873.527344 2118.609375 1844.390625 2134.167969" fill="#674c2a"/></g><g clip-path="url(#a)"><g clip-path="url(#b)"><g clip-path="url(#c)"><path d="M 1023.089844 1006.398438 L 1023.089844 1360.929688 L 1109.488281 1360.929688 L 1109.488281 1006.398438 Z M 1023.089844 1006.398438" fill="url(#d)"/></g></g></g><g clip-path="url(#e)"><g clip-path="url(#f)"><g clip-path="url(#g)"><path d="M 1752.242188 256.152344 L 450.851562 1007.507812 L 1285.0625 2452.40625 L 2586.453125 1701.046875 Z M 1752.242188 256.152344" fill="url(#h)"/></g></g></g><g clip-path="url(#i)"><g clip-path="url(#j)"><g clip-path="url(#k)"><path d="M 394.390625 1519.609375 L 992.210938 1519.609375 L 992.210938 863.671875 L 394.390625 863.671875 Z M 394.390625 1519.609375" fill="url(#l)"/></g></g></g><g clip-path="url(#m)"><g clip-path="url(#n)"><g clip-path="url(#o)"><path d="M 163.339844 822.636719 L 1109.042969 1368.640625 L 1664.144531 407.179688 L 718.441406 -138.824219 Z M 163.339844 822.636719" fill="url(#p)"/></g></g></g><g id="change4_1"><path d="M 1097.582031 1425.421875 C 1097.582031 1425.421875 1101.941406 1408.898438 1110.628906 1380.371094 C 1119.941406 1352.128906 1131.710938 1310.890625 1151.21875 1263.296875 C 1160.082031 1239.117188 1172.566406 1213.960938 1185.132812 1187.144531 C 1199.441406 1161.117188 1213.40625 1132.878906 1232.507812 1106.300781 C 1249.855469 1078.636719 1271.511719 1052.449219 1293.800781 1026.308594 C 1305.761719 1014.027344 1317.890625 1001.566406 1330.007812 989.078125 C 1344.15625 974.839844 1356.414062 966.457031 1369.726562 954.84375 C 1394.523438 932.554688 1426.835938 914.621094 1456.003906 895.761719 C 1486.292969 879.597656 1516.265625 864.070312 1546.0625 851.863281 C 1605.429688 826.191406 1662.046875 807.617188 1709.984375 790.75 C 1733.914062 782.277344 1755.972656 774.515625 1775.40625 767.636719 C 1795.070312 761.160156 1811.660156 754.300781 1825.28125 748.386719 C 1852.707031 737.082031 1868.859375 731.109375 1868.859375 731.109375 C 1868.859375 731.109375 1854.644531 740.496094 1829.019531 756.066406 C 1816.359375 763.945312 1800.722656 773.253906 1782.113281 782.585938 C 1763.597656 792.242188 1742.914062 803.765625 1719.570312 814.058594 C 1673.523438 836.359375 1618.523438 859.359375 1562.242188 887.027344 C 1533.507812 899.945312 1506.140625 917.097656 1477.5 932.3125 C 1451.027344 950.382812 1423.335938 965.277344 1397.597656 988.828125 C 1385.191406 999.316406 1369.335938 1010.519531 1359.773438 1020.355469 C 1348.113281 1031.972656 1336.578125 1043.574219 1325.042969 1055.027344 C 1303.925781 1079.585938 1281.566406 1102.691406 1264.117188 1128.464844 C 1245.109375 1153.09375 1229.421875 1178.902344 1213.761719 1202.910156 C 1199.957031 1228.144531 1185.210938 1251.191406 1174 1273.890625 C 1150.390625 1318.621094 1131.328125 1356.53125 1118.550781 1383.5 C 1105.539062 1410.308594 1097.582031 1425.421875 1097.582031 1425.421875" fill="#346229"/></g><g id="change4_2"><path d="M 1165.398438 1280.710938 C 1165.398438 1280.710938 1168.160156 1273.730469 1173.679688 1261.96875 C 1175.699219 1255.839844 1182.449219 1250.179688 1188.96875 1242.601562 C 1195.699219 1234.410156 1205.03125 1229.980469 1215.070312 1222.890625 C 1225.578125 1218.019531 1237.300781 1211.558594 1250.320312 1208.53125 C 1263.199219 1204.578125 1277.011719 1201.519531 1291.488281 1200.101562 C 1305.878906 1198.851562 1320.871094 1197.269531 1335.980469 1198.339844 L 1347.351562 1198.851562 L 1359.398438 1200.398438 L 1381.078125 1203.371094 C 1395.210938 1205.269531 1409.988281 1209.121094 1424.589844 1213.199219 C 1439.71875 1217.039062 1452.648438 1221.640625 1465.671875 1225.398438 C 1478.78125 1229.230469 1491.320312 1233.910156 1502.648438 1236.441406 C 1514.179688 1238.988281 1525.039062 1243.460938 1535.410156 1244.769531 C 1545.710938 1246.480469 1555.390625 1248.609375 1564.039062 1250.488281 C 1572.75 1251.289062 1580.289062 1252.050781 1586.550781 1252.601562 C 1599.539062 1254.140625 1606.921875 1255.058594 1606.921875 1255.058594 C 1606.921875 1255.058594 1600.070312 1257.578125 1587.371094 1261.289062 C 1581.089844 1263 1573.261719 1265.710938 1564.199219 1267.339844 C 1555.160156 1268.261719 1544.710938 1269.339844 1533.28125 1269.929688 C 1521.730469 1271.339844 1509.5 1269.578125 1496.289062 1268.671875 C 1482.710938 1267.890625 1469.78125 1265.769531 1456.429688 1263 C 1442.941406 1260.269531 1428.441406 1257.988281 1415.800781 1254.738281 C 1402.710938 1251.46875 1389.191406 1248.378906 1374.390625 1246.800781 L 1352.921875 1243.070312 L 1343.53125 1241.460938 L 1333.371094 1240.648438 C 1319.949219 1239.519531 1306.578125 1238.671875 1293.800781 1238.671875 C 1280.949219 1238.929688 1268.601562 1239.011719 1256.988281 1240.539062 C 1245.308594 1241.398438 1234.898438 1244.359375 1224.761719 1246.109375 C 1215.96875 1249.980469 1205.46875 1251.46875 1199.238281 1255.78125 C 1192.820312 1260.171875 1185.011719 1261.871094 1180.691406 1267.058594 C 1171.140625 1275.910156 1165.398438 1280.710938 1165.398438 1280.710938" fill="#346229"/></g><g id="change4_3"><path d="M 1297.265625 1077.386719 C 1297.265625 1077.386719 1303.484375 1072.164062 1314.292969 1063.113281 C 1320.03125 1058.945312 1325.976562 1052.898438 1334.773438 1048.09375 C 1343.222656 1042.949219 1352.921875 1036.992188 1363.933594 1031 C 1375.203125 1026.042969 1387.523438 1020.65625 1400.851562 1015.554688 C 1415.191406 1011.539062 1427.675781 1007.457031 1446.042969 1004.1875 C 1461.003906 1003.277344 1475.792969 1000.6875 1491.988281 1000.972656 C 1508.675781 1002.332031 1526.753906 1003.035156 1542.78125 1005.472656 C 1558.582031 1008.410156 1574.28125 1011.382812 1589.859375 1014.292969 C 1597.386719 1015.730469 1604.867188 1017.351562 1612.273438 1019.164062 L 1622.257812 1021.390625 L 1633.335938 1023.253906 C 1647.71875 1024.945312 1662.75 1029.695312 1674.707031 1029.5625 C 1687.183594 1029.75 1699.207031 1032.820312 1710.472656 1031.703125 C 1721.695312 1030.957031 1732.304688 1030.757812 1741.882812 1030.582031 C 1751.25 1029.167969 1759.492188 1027.949219 1766.238281 1026.941406 C 1780.292969 1025.21875 1788.257812 1024.1875 1788.257812 1024.1875 C 1788.257812 1024.1875 1781.53125 1028.445312 1768.980469 1035.246094 C 1762.695312 1038.503906 1755.136719 1043.011719 1745.863281 1046.898438 C 1736.464844 1049.992188 1725.589844 1053.492188 1713.480469 1056.75 C 1701.5 1060.796875 1687.445312 1060.777344 1672.832031 1062.34375 C 1657.460938 1064.386719 1644.199219 1062.398438 1629.070312 1061.695312 L 1617.910156 1060.984375 L 1605.425781 1059.535156 C 1597.78125 1058.582031 1590.066406 1057.472656 1582.300781 1056.089844 C 1567.136719 1053.765625 1551.703125 1051.328125 1536.265625 1048.925781 C 1521.082031 1046.128906 1507.488281 1045.417969 1493.214844 1043.355469 C 1477.738281 1043.179688 1462.507812 1042.949219 1447.773438 1042.773438 C 1434.347656 1044.308594 1421.335938 1045.832031 1408.949219 1047.226562 C 1396.363281 1050.199219 1384.132812 1052.449219 1372.722656 1054.578125 C 1361.925781 1057.945312 1351.648438 1060.578125 1342.410156 1063.011719 C 1333.097656 1065.164062 1325.132812 1068.796875 1318.460938 1070.769531 C 1304.933594 1074.984375 1297.265625 1077.386719 1297.265625 1077.386719" fill="#346229"/></g><g id="change4_4"><path d="M 1561.089844 873.984375 C 1561.089844 873.984375 1580.027344 868.863281 1608.40625 864.386719 C 1615.523438 863.363281 1623.21875 862.234375 1631.363281 861.472656 C 1639.640625 861.0625 1647.621094 858.261719 1656.21875 857.191406 C 1673.300781 853.933594 1691.382812 851.722656 1709.523438 849.46875 C 1727.421875 845.507812 1745.3125 841.328125 1762.460938 838.675781 C 1770.84375 836.660156 1779.703125 836.898438 1787.058594 834.039062 C 1794.664062 831.683594 1801.984375 829.882812 1808.796875 828.210938 C 1836.136719 821.683594 1856.097656 819.042969 1856.097656 819.042969 C 1856.097656 819.042969 1840.917969 830.773438 1815.671875 845.804688 C 1809.363281 849.570312 1802.441406 853.558594 1794.902344 857.359375 C 1787.648438 861.925781 1778.960938 863.691406 1770.328125 866.605469 C 1752.929688 872.277344 1734.003906 877.140625 1715.023438 882.015625 C 1695.503906 883.765625 1675.894531 885.601562 1657.632812 886.160156 C 1639.230469 887.59375 1622.785156 885.304688 1608.507812 883.277344 C 1580.085938 879.007812 1561.089844 873.984375 1561.089844 873.984375" fill="#346229"/></g><g id="change5_1"><path d="M 1088.378906 1394.273438 C 1088.378906 1394.273438 1088.195312 1377.792969 1088.976562 1349.082031 C 1088.6875 1334.691406 1091.527344 1317.414062 1094.515625 1297.179688 C 1096.636719 1276.722656 1101.894531 1254.328125 1109.21875 1230.390625 C 1114.820312 1205.699219 1126.550781 1181.078125 1137.160156 1154.171875 C 1150.46875 1128.796875 1162.609375 1100.347656 1180.914062 1074.800781 C 1197.5 1047.925781 1217.148438 1022.023438 1238.144531 996.464844 C 1248.828125 983.859375 1260.527344 972.050781 1271.722656 959.699219 C 1277.941406 953.460938 1282.128906 947.714844 1289.925781 941.054688 L 1308.109375 924.535156 C 1331.210938 902.714844 1361.546875 882.203125 1389.101562 864.152344 C 1403.472656 855.859375 1417.71875 847.644531 1431.863281 839.496094 C 1446.597656 832.671875 1461.128906 826 1475.488281 819.394531 C 1506.207031 806.074219 1533.445312 799.921875 1560.660156 790.757812 C 1586.859375 782.542969 1613.929688 774.074219 1637.660156 768.394531 C 1685.195312 755.933594 1725.378906 747.410156 1753.234375 740.605469 C 1781.207031 734.167969 1797.382812 731.113281 1797.382812 731.113281 C 1797.382812 731.113281 1782.320312 737.90625 1755.726562 748.800781 C 1728.953125 759.199219 1691.140625 775.375 1645.058594 792.511719 C 1621.78125 800.957031 1599 811.070312 1572.160156 821.5 C 1546.855469 832.285156 1516.628906 842.484375 1491.628906 854.558594 C 1478.398438 861.429688 1464.890625 868.453125 1451.273438 875.488281 C 1438.304688 883.558594 1425.136719 891.71875 1411.863281 899.957031 C 1386.039062 917.730469 1361.667969 933.972656 1337.398438 957.320312 L 1318.984375 973.539062 C 1314.121094 977.253906 1308.121094 984.457031 1302.761719 989.78125 C 1291.910156 1001.359375 1280.519531 1012.410156 1270.199219 1024.242188 C 1250.195312 1048.390625 1229.554688 1071.492188 1212.914062 1096.367188 C 1194.597656 1120.085938 1180.992188 1145.648438 1166.335938 1168.902344 C 1154.738281 1193.648438 1140.789062 1215.953125 1132.9375 1238.726562 C 1123.773438 1261.042969 1115.382812 1281.5 1110.53125 1300.398438 C 1104.675781 1319.132812 1099.296875 1335.652344 1097.457031 1350.011719 C 1092.078125 1378.222656 1088.378906 1394.273438 1088.378906 1394.273438" fill="#68b330"/></g><g id="change5_2"><path d="M 738.449219 252.007812 C 738.449219 252.007812 740.800781 253.976562 745.097656 257.648438 C 749.042969 261.820312 756.589844 265.765625 764.871094 271.058594 C 782.867188 280.875 810.515625 295.429688 840.65625 314.332031 C 855.996094 323.863281 872.84375 333.519531 889.859375 345.46875 C 906.546875 358.171875 924.457031 371.5 942.351562 386 C 951.410156 393.199219 960.59375 400.515625 969.898438 407.96875 C 980.550781 418.582031 986.214844 425.859375 994.4375 435.3125 C 1010.488281 451.703125 1023.699219 474.671875 1037.320312 496.640625 C 1051.140625 518.796875 1058.101562 542.316406 1068.589844 564.691406 C 1076.828125 587.644531 1082.210938 611.152344 1088.4375 633.417969 C 1092.410156 656.167969 1096.027344 678.230469 1098.480469 699.132812 C 1099.847656 720.195312 1100.527344 740.125 1101.039062 758.367188 C 1100.367188 776.726562 1098.808594 793.511719 1097.457031 808.214844 C 1096.769531 823 1093.347656 835.691406 1091.679688 846.101562 C 1087.6875 866.949219 1084.738281 878.5625 1084.738281 878.5625 C 1084.738281 878.5625 1083.78125 866.355469 1083.148438 845.453125 C 1082.640625 835.003906 1083.390625 822.445312 1081.097656 808.011719 C 1079.28125 793.605469 1077.4375 777.457031 1075.851562 759.945312 C 1072.578125 742.527344 1069.117188 723.785156 1066.03125 703.980469 C 1061.210938 684.5625 1056.128906 664.078125 1050.878906 642.894531 C 1043.757812 622.425781 1036.378906 601.292969 1028.890625 579.824219 C 1018.960938 559.871094 1011.507812 537.0625 999.386719 518.875 C 988.097656 500.015625 978.691406 480.558594 961.945312 462.613281 C 954.929688 453.929688 947.957031 445.316406 941.0625 436.824219 C 932.722656 429.304688 924.539062 421.917969 916.441406 414.613281 C 900.144531 400.179688 884.929688 385.488281 870.25 371.636719 C 854.441406 358.484375 839.574219 346.035156 825.769531 334.613281 C 798.46875 311.105469 775.730469 291.59375 759.820312 277.902344 C 743.257812 263.023438 739.25 251.640625 738.449219 252.007812" fill="#68b330"/></g><g id="change5_3"><path d="M 447.351562 899.449219 C 447.351562 899.449219 459.132812 901.261719 479.417969 905.480469 C 499.457031 910.140625 528.660156 915.558594 562.851562 924.210938 C 567.164062 925.269531 571.542969 926.378906 576 927.429688 C 583.425781 929.449219 585.488281 930.96875 590.601562 932.789062 C 599.355469 936.480469 608.433594 940.238281 617.71875 944.160156 C 627.023438 948.089844 636.550781 952.128906 646.324219 956.230469 C 655.960938 960.949219 665.40625 967.761719 675.242188 973.671875 C 694.484375 986.328125 716.347656 997.710938 733.320312 1014.480469 C 750.742188 1030.808594 771.148438 1044.71875 786.261719 1063.921875 C 801.660156 1083.011719 818.839844 1099.429688 832.253906 1120.640625 C 845.257812 1139.75 857.222656 1158.949219 868.917969 1177.730469 C 879.390625 1198.128906 888.714844 1218.179688 897.566406 1237.070312 C 907.546875 1255.449219 911.023438 1275.058594 917.035156 1291.960938 C 921.902344 1309.238281 928.160156 1324.460938 929.265625 1339.238281 C 931.351562 1353.601562 933.152344 1366.160156 934.683594 1376.480469 C 937.382812 1397.050781 938.363281 1408.730469 938.363281 1408.730469 C 938.363281 1408.730469 933.582031 1397.660156 926.320312 1378.441406 C 922.804688 1368.878906 918.527344 1357.261719 913.621094 1343.980469 C 909.613281 1330.441406 900.226562 1316.898438 893.4375 1301.128906 C 885.21875 1285.921875 879.226562 1267.980469 868.222656 1251.769531 C 858.039062 1235.140625 847.222656 1217.769531 836.894531 1199.5 C 824.011719 1181.710938 810.742188 1163.289062 797.285156 1144.628906 C 785.75 1126.941406 768.246094 1110.929688 754.074219 1093.769531 C 740.496094 1075.53125 721.683594 1062.46875 705.875 1046.871094 C 690.046875 1030.808594 672.257812 1019.390625 655.550781 1006.859375 C 647 1000.808594 639.148438 994.421875 630.480469 988.679688 C 621.296875 983.539062 612.195312 978.449219 603.382812 973.53125 C 594.589844 968.621094 586.042969 963.808594 577.738281 959.128906 C 574.222656 957.171875 568.394531 953.339844 566.964844 953.070312 C 562.667969 951.328125 558.558594 949.609375 554.488281 947.910156 C 521.910156 934.621094 495.429688 921.699219 476.578125 913.511719 C 457.824219 904.921875 447.351562 899.449219 447.351562 899.449219" fill="#68b330"/></g><g id="change6_1"><path d="M 726.101562 317.035156 C 726.101562 317.035156 608.351562 773.371094 1002.289062 952.855469 C 991.308594 624.820312 726.101562 317.035156 726.101562 317.035156" fill="#528b30"/></g><g id="change4_5"><path d="M 782.457031 350.957031 C 782.457031 350.957031 790.554688 359.335938 803.746094 374.628906 C 816.421875 390.359375 836.339844 411.269531 857.015625 439.054688 C 877.996094 466.734375 902.617188 499.046875 924.988281 536.5 C 936.175781 555.195312 949.386719 573.539062 958.957031 594.59375 C 969.222656 615.199219 979.652344 636.121094 990.078125 657.046875 C 998.320312 679.082031 1006.5 701.078125 1014.578125 722.761719 C 1023.886719 743.972656 1026.277344 767.140625 1032.226562 788.234375 C 1037.585938 809.621094 1042.367188 830.328125 1043.539062 850.53125 C 1045.75 870.578125 1047.296875 889.507812 1048.667969 906.949219 C 1051.058594 924.253906 1048.6875 940.433594 1048.238281 954.617188 C 1047.4375 968.734375 1046.769531 981.019531 1046.167969 991.21875 C 1044.886719 1011.410156 1043.539062 1022.820312 1043.539062 1022.820312 C 1043.539062 1022.820312 1040.996094 1011.359375 1037.628906 991.488281 C 1036.027344 981.5625 1034.128906 969.53125 1031.917969 955.75 C 1029.296875 942.109375 1028.257812 926.484375 1023.617188 909.953125 C 1019.546875 893.398438 1015.207031 875.542969 1011.289062 856.605469 C 1008.058594 837.523438 1000.878906 818.3125 994.804688 798.1875 C 988.054688 778.242188 983.433594 757.046875 974.457031 736.765625 C 966.398438 716.238281 958.097656 695.441406 949.835938 674.609375 C 930.632812 633.980469 912.269531 592.917969 891.515625 555.710938 C 881.25 537.117188 872.761719 518.320312 862.699219 501.507812 C 852.945312 484.527344 844.171875 468.152344 836.097656 453.03125 C 819.820312 422.539062 806.199219 397.164062 796.667969 379.4375 C 787.28125 361.515625 782.457031 350.957031 782.457031 350.957031" fill="#346229"/></g><g id="change4_6"><path d="M 798.945312 760.390625 C 799.085938 760.039062 801.644531 764.824219 807.878906 769.558594 C 813.113281 774.449219 823.648438 779.382812 835.648438 784.75 C 841.824219 787.367188 848.574219 790.179688 855.648438 793.203125 C 862.867188 796.003906 870.496094 799.007812 878.308594 802.101562 C 894.523438 808.226562 911.230469 815.960938 928 823.542969 C 936.179688 827.238281 944.335938 830.925781 952.355469 834.601562 C 960.839844 838.140625 968.796875 843.125 976.710938 847.414062 C 992.210938 856.738281 1006.183594 867.128906 1015.832031 878.800781 C 1020.984375 884.222656 1024.894531 889.839844 1027.464844 895.488281 C 1030.332031 900.855469 1032.824219 905.320312 1033.703125 909.648438 C 1036.03125 918.027344 1036.632812 922.535156 1036.632812 922.535156 C 1036.632812 922.535156 1033.132812 918.878906 1028.144531 912.804688 C 1023.191406 906.742188 1014.421875 899.765625 1003.351562 893.046875 C 992.601562 886.039062 978.695312 879.839844 963.621094 873.320312 C 947.671875 866.890625 930.636719 860.058594 913.605469 853.175781 C 897.121094 844.941406 880.597656 836.8125 865.648438 828.132812 C 858.59375 824.363281 850.191406 819.273438 843.929688 814.707031 C 837.203125 810.179688 831.007812 805.453125 825.488281 800.625 C 814.238281 791.25 806.695312 781.292969 802.523438 773.058594 C 798.574219 765.21875 799.515625 760.339844 798.945312 760.390625" fill="#346229"/></g><g id="change4_7"><path d="M 726.101562 381.160156 C 726.101562 381.160156 727.574219 384.746094 729.617188 391.074219 C 730.230469 394.566406 733.175781 397.441406 735.140625 401.085938 C 736.980469 404.632812 740.90625 408.226562 743.894531 412.484375 C 750.601562 420.769531 760.433594 428.800781 770.886719 437.339844 C 776.039062 441.6875 781.828125 445.714844 787.53125 450.0625 C 793.585938 454.558594 798.675781 458.359375 805.261719 462.324219 C 817.554688 470.992188 829.78125 477.371094 841.949219 485.542969 C 854.035156 493.269531 864.730469 502.0625 873.050781 510.5 C 881.375 518.824219 886.710938 527.449219 889.535156 533.601562 C 892.457031 539.816406 893.765625 543.285156 893.765625 543.285156 C 893.765625 543.285156 890.945312 540.691406 886.121094 536.144531 C 881.949219 531.175781 873.910156 526.15625 865.160156 520.03125 C 856.363281 513.738281 844.605469 508.683594 832.378906 502.339844 C 820.210938 496.394531 805.652344 488.933594 793.113281 480.6875 C 767.289062 463.355469 744.835938 440.925781 733.710938 419.347656 C 730.949219 413.945312 728.472656 409.332031 727.53125 404.007812 C 726.652344 399.039062 724.9375 394.988281 725.425781 391.671875 C 725.671875 385.035156 726.101562 381.160156 726.101562 381.160156" fill="#346229"/></g><g id="change4_8"><path d="M 739.839844 562.5625 C 739.839844 562.5625 743.542969 566.160156 750.003906 572.476562 C 756.121094 579.398438 766.039062 586.425781 778.347656 594.691406 C 802.785156 611.457031 840.65625 624.214844 878.140625 641.722656 C 914.746094 658.429688 952.984375 678.683594 973.761719 704.007812 C 979.488281 709.621094 983.332031 715.949219 986.214844 721.886719 C 989.613281 727.417969 991.980469 732.425781 993.027344 737.050781 C 995.664062 745.875 996.789062 750.769531 996.789062 750.769531 C 996.789062 750.769531 994.007812 746.46875 989.222656 738.941406 C 984.949219 731.300781 976.238281 722.027344 965.050781 712.832031 C 942.902344 693.527344 905.890625 678.871094 868.734375 661.59375 C 832.519531 644.921875 793.992188 626.773438 770.679688 604.421875 C 758.902344 594.03125 750.820312 582.472656 746.570312 575.003906 C 742.316406 567.074219 739.839844 562.5625 739.839844 562.5625" fill="#346229"/></g><g clip-path="url(#q)"><g clip-path="url(#r)"><g clip-path="url(#s)"><path d="M 947.589844 1445.601562 L 947.589844 1669.789062 L 1096.359375 1669.789062 L 1096.359375 1445.601562 Z M 947.589844 1445.601562" fill="url(#t)"/></g></g></g><g id="change4_9"><path d="M 1117.050781 1459.320312 C 1117.050781 1459.320312 1130.023438 1456.703125 1152.699219 1453.210938 C 1164.070312 1451.550781 1177.851562 1449.542969 1193.671875 1447.222656 C 1209.652344 1445.660156 1226.945312 1440.632812 1245.664062 1436.222656 C 1263.941406 1431.949219 1283.734375 1427.351562 1304.691406 1422.453125 C 1325.921875 1414.972656 1348.226562 1407.070312 1371.316406 1398.890625 C 1395.144531 1391.972656 1416.835938 1380.101562 1440.382812 1371.0625 C 1452.011719 1366.25 1463.765625 1361.441406 1475.507812 1356.582031 L 1510.066406 1340.359375 C 1534.996094 1330.394531 1554.164062 1316.734375 1576.175781 1305.253906 C 1596.371094 1290.597656 1618.328125 1279.234375 1636.5625 1263.75 C 1655.75 1249.519531 1673.949219 1235.21875 1690.289062 1220.453125 C 1707.324219 1206.46875 1722.046875 1191.554688 1736.378906 1178.453125 C 1750.757812 1165.433594 1762.699219 1152.214844 1774.238281 1141.246094 C 1785.765625 1130.246094 1795.097656 1120.019531 1802.789062 1111.550781 C 1818.410156 1094.863281 1827.898438 1085.578125 1827.898438 1085.578125 C 1827.898438 1085.578125 1821.597656 1097.085938 1809.5625 1116.765625 C 1803.5625 1126.601562 1796.21875 1138.53125 1786.867188 1151.628906 C 1777.601562 1164.71875 1768.117188 1180.441406 1755.0625 1195.421875 C 1742.480469 1210.785156 1729.484375 1228.144531 1713.042969 1244.125 C 1705.082031 1252.402344 1696.894531 1260.890625 1688.5625 1269.582031 C 1679.445312 1277.578125 1670.207031 1285.707031 1660.761719 1293.960938 C 1642.292969 1311.085938 1620.414062 1325.539062 1598.960938 1341.082031 C 1575.839844 1354 1551.886719 1370.511719 1528.347656 1380.3125 L 1491.664062 1396.621094 C 1479.261719 1401.449219 1466.960938 1406.25 1454.703125 1410.980469 C 1430.28125 1420.140625 1406.035156 1430.230469 1382.375 1435.871094 C 1358.679688 1442.070312 1335.800781 1448.132812 1314.035156 1453.761719 C 1289.050781 1457.53125 1268.785156 1459.082031 1248.453125 1461.199219 C 1228.539062 1463.441406 1210.425781 1465.019531 1194.46875 1463.472656 C 1178.523438 1462.789062 1164.585938 1462.191406 1153.144531 1461.742188 C 1130.179688 1460.589844 1117.050781 1459.320312 1117.050781 1459.320312" fill="#346229"/></g><g id="change4_10"><path d="M 613.894531 1229.390625 C 613.894531 1229.390625 635.691406 1244.921875 665.550781 1270.859375 C 680.394531 1283.769531 696.734375 1300.78125 714.605469 1316.960938 C 723.382812 1325.269531 732.746094 1333.488281 741.660156 1342.449219 C 750.660156 1351.378906 761.191406 1358.121094 770.882812 1366.191406 L 785.402344 1378.21875 L 789.003906 1381.230469 C 789.167969 1381.410156 791.292969 1382.980469 789.738281 1381.960938 L 791.824219 1383.199219 L 800.269531 1388.101562 C 811.535156 1394.070312 822.089844 1402.160156 832.703125 1407.191406 C 853.5 1416.429688 873.234375 1426.039062 891.945312 1432.75 C 910.1875 1440.261719 925.421875 1446.511719 936.117188 1450.929688 C 946.8125 1455.371094 952.800781 1458.410156 952.800781 1458.410156 C 952.800781 1458.410156 926.179688 1457.640625 886.75 1450.960938 C 867.019531 1448.359375 843.929688 1441.601562 818.941406 1432.75 C 806.976562 1427.929688 796.117188 1421.941406 784.605469 1415.828125 L 776.035156 1411.191406 L 773.910156 1410.039062 C 770.882812 1408.25 771.925781 1408.621094 770.679688 1407.820312 L 766.734375 1404.71875 L 750.597656 1392.070312 C 740.269531 1383.171875 728.921875 1375.140625 719.78125 1365.601562 C 710.621094 1356.109375 702.070312 1346.21875 693.648438 1336.960938 C 676.714844 1318.308594 663.789062 1299.800781 651.867188 1283.789062 C 628.269531 1251.929688 613.894531 1229.390625 613.894531 1229.390625" fill="#346229"/></g><g id="change6_2"><path d="M 1438.613281 1166.824219 C 1415.609375 1160.964844 1392.195312 1157.316406 1367.816406 1159.46875 C 1340.949219 1161.824219 1308.71875 1177.355469 1283.039062 1176.527344 C 1262.402344 1175.886719 1254.714844 1167.144531 1273.625 1147.160156 C 1359.539062 1056.421875 1484.082031 1079.246094 1594 1090.335938 C 1629.960938 1093.941406 1684.375 1105.371094 1675.542969 1153.347656 C 1670.695312 1179.722656 1640.128906 1192.347656 1615.121094 1197.484375 C 1551.703125 1210.453125 1496.367188 1181.550781 1438.613281 1166.824219" fill="#528b30"/></g><g id="change6_3"><path d="M 1749.039062 997.804688 C 1732.960938 1001.09375 1715.769531 1001.058594 1700.25 1000.425781 C 1671.109375 999.152344 1643.824219 993.382812 1616.011719 987.722656 C 1582.707031 980.925781 1546.75 973.726562 1512.691406 974.910156 C 1503.351562 975.253906 1460.109375 986.5625 1465.78125 965.558594 C 1469.457031 951.753906 1511.664062 936.421875 1523.808594 931.554688 C 1548.144531 921.816406 1574.609375 918.082031 1600.582031 915.742188 C 1642.519531 911.933594 1685.195312 911.207031 1727.859375 906.984375 C 1746.175781 905.167969 1772.929688 902.070312 1789.855469 910.660156 C 1816.195312 924.023438 1803.3125 966.183594 1784.148438 982.128906 C 1774.121094 990.375 1761.941406 995.144531 1749.039062 997.804688" fill="#528b30"/></g><g id="change6_4"><path d="M 1440.578125 1295.589844 C 1462.511719 1302.839844 1478.128906 1311.589844 1467.640625 1320.589844 C 1453.179688 1332.960938 1432.628906 1326.859375 1415.71875 1329.148438 C 1401.199219 1331.101562 1388.378906 1334.640625 1373.488281 1335.550781 C 1332.429688 1338.121094 1291.058594 1343.238281 1251.878906 1356.238281 C 1232.351562 1362.660156 1151.648438 1424.75 1146.699219 1380.769531 C 1142.289062 1341.371094 1218.828125 1288.238281 1249.28125 1275.710938 C 1288.089844 1259.691406 1327.949219 1268.160156 1367.148438 1277.851562 C 1373.648438 1279.441406 1412.359375 1286.269531 1440.578125 1295.589844" fill="#528b30"/></g><g id="change6_5"><path d="M 488.824219 971.589844 C 561.175781 991.859375 763.050781 1008.328125 900.183594 1409.351562 C 679.25 1409.859375 488.824219 971.589844 488.824219 971.589844" fill="#528b30"/></g><g id="change7_1"><path d="M 1154.390625 2151.339844 C 1137.050781 2219.371094 1054.480469 2257.058594 969.816406 2235.519531 C 885.15625 2213.921875 830.558594 2141.339844 847.9375 2073.269531 C 865.28125 2005.230469 947.875 1967.519531 1032.601562 1989.140625 C 1117.21875 2010.640625 1171.78125 2083.25 1154.390625 2151.339844" fill="#4a3328"/></g><g id="change7_2"><path d="M 2052.179688 2253.011719 C 1984.171875 2254.78125 1883.875 2210.871094 1950.59375 2131.300781 C 1981.410156 2094.4375 2023.621094 2069.679688 2071.730469 2065.769531 C 2137.683594 2060.320312 2230.363281 2068.609375 2201.996094 2155.351562 C 2179.296875 2224.820312 2122.632812 2251.191406 2052.179688 2253.011719" fill="#4a3328"/></g><g id="change7_3"><path d="M 377.375 2247.289062 C 319.75 2248.78125 218.054688 2216.378906 252.039062 2140.761719 C 282.960938 2071.929688 371.324219 2048.070312 435.554688 2093.261719 C 464.039062 2113.269531 496.144531 2150.488281 488.824219 2188.191406 C 479.070312 2238.71875 419.5625 2246.21875 377.375 2247.289062" fill="#4a3328"/></g><g id="change7_4"><path d="M 1478.5 2230.390625 C 1378.089844 2256.960938 1374.160156 2140.371094 1451.628906 2111.128906 C 1487.328125 2097.660156 1536.71875 2104.921875 1545.46875 2146.640625 C 1555.390625 2193.488281 1518.640625 2219.75 1478.5 2230.390625" fill="#4a3328"/></g><g id="change7_5"><path d="M 1672.933594 2197.9375 C 1672.933594 2197.9375 1678.433594 2197.449219 1687.882812 2197.449219 C 1697.226562 2197.5 1710.914062 2198.078125 1725.878906 2197.710938 C 1733.363281 2197.710938 1741.375 2198.1875 1749.648438 2197.078125 C 1757.917969 2195.898438 1766.597656 2196.160156 1775.164062 2194.449219 C 1783.769531 2192.53125 1792.449219 2190.058594 1801.316406 2188.839844 C 1808.289062 2186.21875 1821.371094 2182.949219 1828.65625 2179.210938 C 1844.796875 2173.210938 1861.921875 2164.078125 1875.8125 2154.398438 C 1883.417969 2149.960938 1888.726562 2143.75 1895.40625 2139.039062 C 1901.179688 2133.480469 1905.796875 2127.648438 1911.023438 2122.519531 C 1915.1875 2116.46875 1918.984375 2111.03125 1922.351562 2106.148438 C 1926.304688 2101.230469 1927.613281 2096.097656 1929.957031 2092.097656 C 1934.230469 2083.640625 1936.777344 2078.828125 1936.777344 2078.828125 C 1936.777344 2078.828125 1937.671875 2084.007812 1938.527344 2093.75 C 1938.527344 2098.5 1940.125 2104.859375 1938.363281 2111.378906 C 1937.125 2118.078125 1936.054688 2126.148438 1933.339844 2134.390625 C 1929.769531 2142.089844 1926.460938 2151.339844 1920.949219 2159.679688 C 1914.746094 2167.339844 1909.449219 2177.328125 1900.808594 2183.96875 C 1885.132812 2199.800781 1865.457031 2211.398438 1843.070312 2220.699219 C 1831.214844 2225.347656 1823.738281 2226.429688 1811.230469 2230.070312 C 1799.921875 2231.71875 1788.566406 2232.097656 1777.878906 2232.957031 C 1767.109375 2233.757812 1756.835938 2230.757812 1747.265625 2229.640625 C 1737.519531 2228.789062 1728.960938 2225.25 1721.1875 2222.417969 C 1705.238281 2217.289062 1693.859375 2210.667969 1685.671875 2205.847656 C 1677.46875 2201.089844 1672.933594 2197.9375 1672.933594 2197.9375" fill="#4a3328"/></g><g id="change7_6"><path d="M 1165.398438 2132.578125 C 1165.601562 2131.941406 1168.890625 2138.511719 1176.988281 2143.210938 C 1184.621094 2148.238281 1197.261719 2152.25 1212.859375 2153.589844 C 1228.539062 2154.769531 1247.210938 2154.121094 1266.890625 2151.191406 C 1276.71875 2150.058594 1286.640625 2147.328125 1296.410156 2145.25 C 1306.738281 2142.480469 1313.960938 2140.121094 1322 2134.769531 C 1332.75 2129.320312 1341.378906 2123.640625 1349.128906 2118.078125 C 1357.011719 2112.300781 1365.488281 2106.148438 1372.789062 2099.839844 C 1379.359375 2092.851562 1387.328125 2087.121094 1392.359375 2079.988281 C 1398.460938 2073.371094 1403.300781 2066.738281 1407.019531 2059.941406 C 1411.75 2053.421875 1413.859375 2046.78125 1416.269531 2040.648438 C 1419.128906 2034.488281 1420.628906 2028.820312 1420.929688 2024 C 1422.671875 2013.789062 1423.691406 2008.011719 1423.691406 2008.011719 C 1423.691406 2008.011719 1426.039062 2013.140625 1429.621094 2023.46875 C 1431.789062 2028.660156 1433.429688 2035.179688 1432.980469 2042.839844 C 1433.199219 2050.589844 1433.769531 2059.851562 1430.601562 2068.878906 C 1429.421875 2073.628906 1428.148438 2078.601562 1426.839844 2083.691406 C 1424.800781 2088.398438 1422.21875 2093.109375 1419.761719 2098.070312 C 1415.210938 2108.449219 1408.050781 2117.28125 1400.648438 2126.75 C 1392.570312 2135.449219 1384.648438 2144.601562 1374.351562 2152.25 C 1363.898438 2160.320312 1353.550781 2167.550781 1343.960938 2172.859375 C 1332.429688 2179.808594 1317.398438 2184.351562 1305.660156 2186.589844 C 1293.25 2189.101562 1281 2189.628906 1269.339844 2189.699219 C 1246.03125 2189.738281 1224.058594 2185.410156 1206.398438 2177.808594 C 1188.5 2170.648438 1175.699219 2159 1170.238281 2148.671875 C 1164.578125 2138.558594 1166.230469 2132.578125 1165.398438 2132.578125" fill="#4a3328"/></g><g id="change7_7"><path d="M 582.789062 2171.078125 C 582.789062 2171.078125 589.601562 2173.261719 601.195312 2177.660156 C 606.738281 2180.488281 614.140625 2181.929688 622.011719 2183.070312 C 629.90625 2184.351562 637.859375 2186.371094 648.085938 2186.539062 C 667.695312 2188.140625 690.699219 2188.339844 715.097656 2185.789062 C 727.328125 2185.359375 739.78125 2182.738281 752.398438 2180.921875 C 765.179688 2179.75 777.347656 2175.460938 789.859375 2172.78125 C 802.210938 2168.519531 812.335938 2166.378906 825.257812 2159.960938 C 837.894531 2154.078125 847.898438 2149.851562 858.960938 2143.589844 C 881.023438 2132.300781 900.019531 2119.371094 916.6875 2108.121094 C 924.132812 2101.820312 932.375 2096.910156 938.183594 2091.238281 C 943.988281 2085.621094 950.246094 2081.339844 954.070312 2076.839844 C 962.640625 2068.019531 967.507812 2062.988281 967.507812 2062.988281 C 967.507812 2062.988281 965.644531 2069.679688 961.410156 2081.671875 C 956.644531 2093.320312 947.8125 2109.410156 934.089844 2126.421875 C 920.125 2142.949219 901.902344 2161.300781 879.347656 2176.539062 C 868.488281 2184.019531 855.09375 2192.898438 843.070312 2198.46875 C 831.78125 2204.671875 815.363281 2210.28125 801.640625 2215.140625 C 787.101562 2217.820312 772.683594 2221.980469 758.289062 2222.960938 C 743.890625 2224.78125 729.78125 2225.089844 716.039062 2224.390625 C 688.777344 2223.921875 663.199219 2218.71875 642.523438 2211.078125 C 632.195312 2208.410156 622.605469 2202.628906 614.753906 2198.191406 C 606.449219 2193.96875 600.460938 2189.578125 596.390625 2184.980469 C 587.597656 2176.320312 582.789062 2171.078125 582.789062 2171.078125" fill="#4a3328"/></g></g></svg>